<mxfile host="app.diagrams.net" modified="2024-03-04T07:29:20.867Z" agent="Mozilla/5.0 (Windows NT 10.0; Win64; x64) AppleWebKit/537.36 (KHTML, like Gecko) Chrome/121.0.0.0 Safari/537.36" etag="gBjAnsOIjpeedSSOu_AF" version="23.1.5" type="github">
  <diagram id="prtHgNgQTEPvFCAcTncT" name="Page-1">
    <mxGraphModel dx="1434" dy="772" grid="1" gridSize="10" guides="1" tooltips="1" connect="1" arrows="1" fold="1" page="1" pageScale="1" pageWidth="1169" pageHeight="827" background="none" math="0" shadow="0">
      <root>
        <mxCell id="0" />
        <mxCell id="1" parent="0" />
        <mxCell id="Nv_zGMJmzMav14E17f1a-2" value="whitelist" style="swimlane;fontStyle=0;childLayout=stackLayout;horizontal=1;startSize=30;horizontalStack=0;resizeParent=1;resizeParentMax=0;resizeLast=0;collapsible=1;marginBottom=0;whiteSpace=wrap;html=1;" parent="1" vertex="1">
          <mxGeometry x="90" y="590" width="80" height="120" as="geometry" />
        </mxCell>
        <mxCell id="Nv_zGMJmzMav14E17f1a-3" value="subject" style="text;strokeColor=none;fillColor=none;align=left;verticalAlign=middle;spacingLeft=4;spacingRight=4;overflow=hidden;points=[[0,0.5],[1,0.5]];portConstraint=eastwest;rotatable=0;whiteSpace=wrap;html=1;" parent="Nv_zGMJmzMav14E17f1a-2" vertex="1">
          <mxGeometry y="30" width="80" height="30" as="geometry" />
        </mxCell>
        <mxCell id="Nv_zGMJmzMav14E17f1a-4" value="object" style="text;strokeColor=none;fillColor=none;align=left;verticalAlign=middle;spacingLeft=4;spacingRight=4;overflow=hidden;points=[[0,0.5],[1,0.5]];portConstraint=eastwest;rotatable=0;whiteSpace=wrap;html=1;" parent="Nv_zGMJmzMav14E17f1a-2" vertex="1">
          <mxGeometry y="60" width="80" height="30" as="geometry" />
        </mxCell>
        <mxCell id="Nv_zGMJmzMav14E17f1a-5" value="extend" style="text;strokeColor=none;fillColor=none;align=left;verticalAlign=middle;spacingLeft=4;spacingRight=4;overflow=hidden;points=[[0,0.5],[1,0.5]];portConstraint=eastwest;rotatable=0;whiteSpace=wrap;html=1;" parent="Nv_zGMJmzMav14E17f1a-2" vertex="1">
          <mxGeometry y="90" width="80" height="30" as="geometry" />
        </mxCell>
        <mxCell id="Nv_zGMJmzMav14E17f1a-29" value="" style="edgeStyle=orthogonalEdgeStyle;rounded=0;orthogonalLoop=1;jettySize=auto;html=1;" parent="1" source="Nv_zGMJmzMav14E17f1a-17" target="Nv_zGMJmzMav14E17f1a-18" edge="1">
          <mxGeometry relative="1" as="geometry" />
        </mxCell>
        <mxCell id="Nv_zGMJmzMav14E17f1a-6" value="anti_ransom_init" style="rounded=0;whiteSpace=wrap;html=1;" parent="1" vertex="1">
          <mxGeometry x="70" y="30" width="140" height="40" as="geometry" />
        </mxCell>
        <mxCell id="Nv_zGMJmzMav14E17f1a-16" value="" style="edgeStyle=orthogonalEdgeStyle;rounded=0;orthogonalLoop=1;jettySize=auto;html=1;exitX=0.5;exitY=1;exitDx=0;exitDy=0;" parent="1" source="Nv_zGMJmzMav14E17f1a-18" target="Nv_zGMJmzMav14E17f1a-15" edge="1">
          <mxGeometry relative="1" as="geometry">
            <mxPoint x="140" y="230" as="sourcePoint" />
            <mxPoint x="140" y="300" as="targetPoint" />
            <Array as="points" />
          </mxGeometry>
        </mxCell>
        <mxCell id="Nv_zGMJmzMav14E17f1a-25" value="" style="edgeStyle=orthogonalEdgeStyle;rounded=0;orthogonalLoop=1;jettySize=auto;html=1;" parent="1" source="Nv_zGMJmzMav14E17f1a-15" target="Nv_zGMJmzMav14E17f1a-24" edge="1">
          <mxGeometry relative="1" as="geometry" />
        </mxCell>
        <mxCell id="Nv_zGMJmzMav14E17f1a-15" value="bait hashlist init" style="rounded=0;whiteSpace=wrap;html=1;" parent="1" vertex="1">
          <mxGeometry x="70" y="240" width="140" height="40" as="geometry" />
        </mxCell>
        <mxCell id="Nv_zGMJmzMav14E17f1a-27" value="" style="edgeStyle=orthogonalEdgeStyle;rounded=0;orthogonalLoop=1;jettySize=auto;html=1;" parent="1" source="Nv_zGMJmzMav14E17f1a-17" target="Nv_zGMJmzMav14E17f1a-18" edge="1">
          <mxGeometry relative="1" as="geometry" />
        </mxCell>
        <mxCell id="Nv_zGMJmzMav14E17f1a-18" value="whitelist init" style="rounded=0;whiteSpace=wrap;html=1;" parent="1" vertex="1">
          <mxGeometry x="70" y="170" width="140" height="40" as="geometry" />
        </mxCell>
        <mxCell id="Nv_zGMJmzMav14E17f1a-19" value="end" style="rounded=0;whiteSpace=wrap;html=1;" parent="1" vertex="1">
          <mxGeometry x="70" y="380" width="140" height="40" as="geometry" />
        </mxCell>
        <mxCell id="Nv_zGMJmzMav14E17f1a-31" value="" style="edgeStyle=orthogonalEdgeStyle;rounded=0;orthogonalLoop=1;jettySize=auto;html=1;" parent="1" source="Nv_zGMJmzMav14E17f1a-24" target="Nv_zGMJmzMav14E17f1a-19" edge="1">
          <mxGeometry relative="1" as="geometry" />
        </mxCell>
        <mxCell id="Nv_zGMJmzMav14E17f1a-51" value="" style="edgeStyle=orthogonalEdgeStyle;rounded=0;orthogonalLoop=1;jettySize=auto;html=1;" parent="1" source="Nv_zGMJmzMav14E17f1a-24" target="Nv_zGMJmzMav14E17f1a-47" edge="1">
          <mxGeometry relative="1" as="geometry" />
        </mxCell>
        <mxCell id="Nv_zGMJmzMav14E17f1a-24" value="install hook" style="rounded=0;whiteSpace=wrap;html=1;" parent="1" vertex="1">
          <mxGeometry x="70" y="310" width="140" height="40" as="geometry" />
        </mxCell>
        <mxCell id="Nv_zGMJmzMav14E17f1a-30" value="" style="edgeStyle=orthogonalEdgeStyle;rounded=0;orthogonalLoop=1;jettySize=auto;html=1;" parent="1" source="Nv_zGMJmzMav14E17f1a-6" target="Nv_zGMJmzMav14E17f1a-17" edge="1">
          <mxGeometry relative="1" as="geometry">
            <mxPoint x="140" y="70" as="sourcePoint" />
            <mxPoint x="140" y="170" as="targetPoint" />
          </mxGeometry>
        </mxCell>
        <mxCell id="Nv_zGMJmzMav14E17f1a-17" value="syshook init" style="rounded=0;whiteSpace=wrap;html=1;" parent="1" vertex="1">
          <mxGeometry x="70" y="100" width="140" height="40" as="geometry" />
        </mxCell>
        <mxCell id="Nv_zGMJmzMav14E17f1a-47" value="&lt;table border=&quot;1&quot; width=&quot;100%&quot; height=&quot;100%&quot; cellpadding=&quot;4&quot; style=&quot;width:100%;height:100%;border-collapse:collapse;&quot;&gt;&lt;tbody&gt;&lt;tr&gt;&lt;th align=&quot;center&quot;&gt;&lt;b&gt;hook func&lt;/b&gt;&lt;/th&gt;&lt;/tr&gt;&lt;tr&gt;&lt;td align=&quot;center&quot;&gt;open&lt;br&gt;openat&lt;br&gt;write&lt;br&gt;unlink&lt;br&gt;unlinkat&lt;br&gt;rename&lt;br&gt;renameat&lt;br&gt;renameat2&lt;br&gt;close&lt;br&gt;getdents&lt;/td&gt;&lt;/tr&gt;&lt;tr&gt;&lt;td align=&quot;center&quot;&gt;&lt;br&gt;&lt;/td&gt;&lt;/tr&gt;&lt;/tbody&gt;&lt;/table&gt;" style="text;html=1;whiteSpace=wrap;strokeColor=none;fillColor=none;overflow=fill;labelBorderColor=default;" parent="1" vertex="1">
          <mxGeometry x="300" y="240" width="100" height="180" as="geometry" />
        </mxCell>
        <mxCell id="Nv_zGMJmzMav14E17f1a-54" value="bait list" style="swimlane;fontStyle=0;childLayout=stackLayout;horizontal=1;startSize=30;horizontalStack=0;resizeParent=1;resizeParentMax=0;resizeLast=0;collapsible=1;marginBottom=0;whiteSpace=wrap;html=1;" parent="1" vertex="1">
          <mxGeometry x="200" y="590" width="80" height="120" as="geometry" />
        </mxCell>
        <mxCell id="Nv_zGMJmzMav14E17f1a-55" value="subject" style="text;strokeColor=none;fillColor=none;align=left;verticalAlign=middle;spacingLeft=4;spacingRight=4;overflow=hidden;points=[[0,0.5],[1,0.5]];portConstraint=eastwest;rotatable=0;whiteSpace=wrap;html=1;" parent="Nv_zGMJmzMav14E17f1a-54" vertex="1">
          <mxGeometry y="30" width="80" height="30" as="geometry" />
        </mxCell>
        <mxCell id="Nv_zGMJmzMav14E17f1a-56" value="object" style="text;strokeColor=none;fillColor=none;align=left;verticalAlign=middle;spacingLeft=4;spacingRight=4;overflow=hidden;points=[[0,0.5],[1,0.5]];portConstraint=eastwest;rotatable=0;whiteSpace=wrap;html=1;" parent="Nv_zGMJmzMav14E17f1a-54" vertex="1">
          <mxGeometry y="60" width="80" height="30" as="geometry" />
        </mxCell>
        <mxCell id="Nv_zGMJmzMav14E17f1a-57" value="extend" style="text;strokeColor=none;fillColor=none;align=left;verticalAlign=middle;spacingLeft=4;spacingRight=4;overflow=hidden;points=[[0,0.5],[1,0.5]];portConstraint=eastwest;rotatable=0;whiteSpace=wrap;html=1;" parent="Nv_zGMJmzMav14E17f1a-54" vertex="1">
          <mxGeometry y="90" width="80" height="30" as="geometry" />
        </mxCell>
        <mxCell id="cdsVnlFEJzLSIqNLkMDZ-12" value="" style="edgeStyle=orthogonalEdgeStyle;rounded=0;orthogonalLoop=1;jettySize=auto;html=1;" edge="1" parent="1" source="Nv_zGMJmzMav14E17f1a-58" target="cdsVnlFEJzLSIqNLkMDZ-7">
          <mxGeometry relative="1" as="geometry" />
        </mxCell>
        <mxCell id="Nv_zGMJmzMav14E17f1a-58" value="open" style="rounded=0;whiteSpace=wrap;html=1;" parent="1" vertex="1">
          <mxGeometry x="540" y="30" width="60" height="40" as="geometry" />
        </mxCell>
        <mxCell id="cdsVnlFEJzLSIqNLkMDZ-1" value="rename" style="rounded=0;whiteSpace=wrap;html=1;" vertex="1" parent="1">
          <mxGeometry x="630" y="30" width="60" height="40" as="geometry" />
        </mxCell>
        <mxCell id="cdsVnlFEJzLSIqNLkMDZ-2" value="unlink" style="rounded=0;whiteSpace=wrap;html=1;" vertex="1" parent="1">
          <mxGeometry x="720" y="30" width="60" height="40" as="geometry" />
        </mxCell>
        <mxCell id="cdsVnlFEJzLSIqNLkMDZ-3" value="write" style="rounded=0;whiteSpace=wrap;html=1;" vertex="1" parent="1">
          <mxGeometry x="810" y="30" width="60" height="40" as="geometry" />
        </mxCell>
        <mxCell id="cdsVnlFEJzLSIqNLkMDZ-4" value="close" style="rounded=0;whiteSpace=wrap;html=1;" vertex="1" parent="1">
          <mxGeometry x="900" y="30" width="60" height="40" as="geometry" />
        </mxCell>
        <mxCell id="cdsVnlFEJzLSIqNLkMDZ-5" value="getdents" style="rounded=0;whiteSpace=wrap;html=1;" vertex="1" parent="1">
          <mxGeometry x="990" y="30" width="60" height="40" as="geometry" />
        </mxCell>
        <mxCell id="cdsVnlFEJzLSIqNLkMDZ-13" value="" style="edgeStyle=orthogonalEdgeStyle;rounded=0;orthogonalLoop=1;jettySize=auto;html=1;" edge="1" parent="1" source="cdsVnlFEJzLSIqNLkMDZ-7" target="cdsVnlFEJzLSIqNLkMDZ-8">
          <mxGeometry relative="1" as="geometry" />
        </mxCell>
        <mxCell id="cdsVnlFEJzLSIqNLkMDZ-7" value="is_whitelist" style="rounded=0;whiteSpace=wrap;html=1;" vertex="1" parent="1">
          <mxGeometry x="540" y="120" width="60" height="40" as="geometry" />
        </mxCell>
        <mxCell id="cdsVnlFEJzLSIqNLkMDZ-15" value="" style="edgeStyle=orthogonalEdgeStyle;rounded=0;orthogonalLoop=1;jettySize=auto;html=1;" edge="1" parent="1" source="cdsVnlFEJzLSIqNLkMDZ-8" target="cdsVnlFEJzLSIqNLkMDZ-14">
          <mxGeometry relative="1" as="geometry" />
        </mxCell>
        <mxCell id="cdsVnlFEJzLSIqNLkMDZ-16" value="no" style="edgeLabel;html=1;align=center;verticalAlign=middle;resizable=0;points=[];" vertex="1" connectable="0" parent="cdsVnlFEJzLSIqNLkMDZ-15">
          <mxGeometry x="-0.24" y="1" relative="1" as="geometry">
            <mxPoint as="offset" />
          </mxGeometry>
        </mxCell>
        <mxCell id="cdsVnlFEJzLSIqNLkMDZ-21" value="" style="edgeStyle=orthogonalEdgeStyle;rounded=0;orthogonalLoop=1;jettySize=auto;html=1;entryX=1;entryY=0.5;entryDx=0;entryDy=0;" edge="1" parent="1" target="cdsVnlFEJzLSIqNLkMDZ-19">
          <mxGeometry relative="1" as="geometry">
            <mxPoint x="577.5" y="200" as="sourcePoint" />
            <mxPoint x="597.5" y="610" as="targetPoint" />
            <Array as="points">
              <mxPoint x="670" y="200" />
              <mxPoint x="670" y="710" />
            </Array>
          </mxGeometry>
        </mxCell>
        <mxCell id="cdsVnlFEJzLSIqNLkMDZ-22" value="yes" style="edgeLabel;html=1;align=center;verticalAlign=middle;resizable=0;points=[];" vertex="1" connectable="0" parent="cdsVnlFEJzLSIqNLkMDZ-21">
          <mxGeometry x="-0.8529" y="-1" relative="1" as="geometry">
            <mxPoint x="1" as="offset" />
          </mxGeometry>
        </mxCell>
        <mxCell id="cdsVnlFEJzLSIqNLkMDZ-8" value="" style="rhombus;whiteSpace=wrap;html=1;" vertex="1" parent="1">
          <mxGeometry x="562.5" y="190" width="15" height="20" as="geometry" />
        </mxCell>
        <mxCell id="cdsVnlFEJzLSIqNLkMDZ-24" value="" style="edgeStyle=orthogonalEdgeStyle;rounded=0;orthogonalLoop=1;jettySize=auto;html=1;" edge="1" parent="1" source="cdsVnlFEJzLSIqNLkMDZ-14" target="cdsVnlFEJzLSIqNLkMDZ-23">
          <mxGeometry relative="1" as="geometry" />
        </mxCell>
        <mxCell id="cdsVnlFEJzLSIqNLkMDZ-14" value="is_bait_file" style="rounded=0;whiteSpace=wrap;html=1;" vertex="1" parent="1">
          <mxGeometry x="540" y="250" width="60" height="40" as="geometry" />
        </mxCell>
        <mxCell id="cdsVnlFEJzLSIqNLkMDZ-30" value="" style="edgeStyle=orthogonalEdgeStyle;rounded=0;orthogonalLoop=1;jettySize=auto;html=1;" edge="1" parent="1" source="cdsVnlFEJzLSIqNLkMDZ-17" target="cdsVnlFEJzLSIqNLkMDZ-29">
          <mxGeometry relative="1" as="geometry" />
        </mxCell>
        <mxCell id="cdsVnlFEJzLSIqNLkMDZ-17" value="exist_modify_bait" style="rounded=0;whiteSpace=wrap;html=1;" vertex="1" parent="1">
          <mxGeometry x="520" y="370" width="100" height="40" as="geometry" />
        </mxCell>
        <mxCell id="cdsVnlFEJzLSIqNLkMDZ-37" value="" style="edgeStyle=orthogonalEdgeStyle;rounded=0;orthogonalLoop=1;jettySize=auto;html=1;" edge="1" parent="1" source="cdsVnlFEJzLSIqNLkMDZ-18" target="cdsVnlFEJzLSIqNLkMDZ-36">
          <mxGeometry relative="1" as="geometry" />
        </mxCell>
        <mxCell id="cdsVnlFEJzLSIqNLkMDZ-18" value="alloc_modify_bait" style="rounded=0;whiteSpace=wrap;html=1;" vertex="1" parent="1">
          <mxGeometry x="520" y="500" width="100" height="40" as="geometry" />
        </mxCell>
        <mxCell id="cdsVnlFEJzLSIqNLkMDZ-19" value="end" style="rounded=0;whiteSpace=wrap;html=1;" vertex="1" parent="1">
          <mxGeometry x="540" y="690" width="60" height="40" as="geometry" />
        </mxCell>
        <mxCell id="cdsVnlFEJzLSIqNLkMDZ-25" value="" style="edgeStyle=orthogonalEdgeStyle;rounded=0;orthogonalLoop=1;jettySize=auto;html=1;" edge="1" parent="1" source="cdsVnlFEJzLSIqNLkMDZ-23" target="cdsVnlFEJzLSIqNLkMDZ-17">
          <mxGeometry relative="1" as="geometry" />
        </mxCell>
        <mxCell id="cdsVnlFEJzLSIqNLkMDZ-26" value="yes" style="edgeLabel;html=1;align=center;verticalAlign=middle;resizable=0;points=[];" vertex="1" connectable="0" parent="cdsVnlFEJzLSIqNLkMDZ-25">
          <mxGeometry x="0.28" relative="1" as="geometry">
            <mxPoint as="offset" />
          </mxGeometry>
        </mxCell>
        <mxCell id="cdsVnlFEJzLSIqNLkMDZ-27" style="edgeStyle=orthogonalEdgeStyle;rounded=0;orthogonalLoop=1;jettySize=auto;html=1;entryX=1;entryY=0.5;entryDx=0;entryDy=0;" edge="1" parent="1" source="cdsVnlFEJzLSIqNLkMDZ-23" target="cdsVnlFEJzLSIqNLkMDZ-19">
          <mxGeometry relative="1" as="geometry">
            <mxPoint x="660" y="570" as="targetPoint" />
            <Array as="points">
              <mxPoint x="650" y="330" />
              <mxPoint x="650" y="710" />
            </Array>
          </mxGeometry>
        </mxCell>
        <mxCell id="cdsVnlFEJzLSIqNLkMDZ-28" value="no" style="edgeLabel;html=1;align=center;verticalAlign=middle;resizable=0;points=[];" vertex="1" connectable="0" parent="cdsVnlFEJzLSIqNLkMDZ-27">
          <mxGeometry x="-0.8081" y="-1" relative="1" as="geometry">
            <mxPoint x="1" as="offset" />
          </mxGeometry>
        </mxCell>
        <mxCell id="cdsVnlFEJzLSIqNLkMDZ-23" value="" style="rhombus;whiteSpace=wrap;html=1;" vertex="1" parent="1">
          <mxGeometry x="562.5" y="320" width="15" height="20" as="geometry" />
        </mxCell>
        <mxCell id="cdsVnlFEJzLSIqNLkMDZ-31" value="" style="edgeStyle=orthogonalEdgeStyle;rounded=0;orthogonalLoop=1;jettySize=auto;html=1;" edge="1" parent="1" source="cdsVnlFEJzLSIqNLkMDZ-29" target="cdsVnlFEJzLSIqNLkMDZ-18">
          <mxGeometry relative="1" as="geometry" />
        </mxCell>
        <mxCell id="cdsVnlFEJzLSIqNLkMDZ-33" value="no" style="edgeLabel;html=1;align=center;verticalAlign=middle;resizable=0;points=[];" vertex="1" connectable="0" parent="cdsVnlFEJzLSIqNLkMDZ-31">
          <mxGeometry x="-0.3" y="-2" relative="1" as="geometry">
            <mxPoint as="offset" />
          </mxGeometry>
        </mxCell>
        <mxCell id="cdsVnlFEJzLSIqNLkMDZ-32" style="edgeStyle=orthogonalEdgeStyle;rounded=0;orthogonalLoop=1;jettySize=auto;html=1;entryX=1;entryY=0.5;entryDx=0;entryDy=0;" edge="1" parent="1" source="cdsVnlFEJzLSIqNLkMDZ-29" target="cdsVnlFEJzLSIqNLkMDZ-19">
          <mxGeometry relative="1" as="geometry">
            <Array as="points">
              <mxPoint x="630" y="450" />
              <mxPoint x="630" y="710" />
            </Array>
          </mxGeometry>
        </mxCell>
        <mxCell id="cdsVnlFEJzLSIqNLkMDZ-35" value="yes" style="edgeLabel;html=1;align=center;verticalAlign=middle;resizable=0;points=[];" vertex="1" connectable="0" parent="cdsVnlFEJzLSIqNLkMDZ-32">
          <mxGeometry x="-0.6807" relative="1" as="geometry">
            <mxPoint as="offset" />
          </mxGeometry>
        </mxCell>
        <mxCell id="cdsVnlFEJzLSIqNLkMDZ-29" value="" style="rhombus;whiteSpace=wrap;html=1;" vertex="1" parent="1">
          <mxGeometry x="562.5" y="440" width="15" height="20" as="geometry" />
        </mxCell>
        <mxCell id="cdsVnlFEJzLSIqNLkMDZ-38" value="" style="edgeStyle=orthogonalEdgeStyle;rounded=0;orthogonalLoop=1;jettySize=auto;html=1;" edge="1" parent="1" source="cdsVnlFEJzLSIqNLkMDZ-36" target="cdsVnlFEJzLSIqNLkMDZ-19">
          <mxGeometry relative="1" as="geometry" />
        </mxCell>
        <mxCell id="cdsVnlFEJzLSIqNLkMDZ-36" value="insert_modify_bait" style="rounded=0;whiteSpace=wrap;html=1;" vertex="1" parent="1">
          <mxGeometry x="520" y="600" width="100" height="40" as="geometry" />
        </mxCell>
      </root>
    </mxGraphModel>
  </diagram>
</mxfile>
